<svg width="608" height="531" viewBox="0 0 608 531" fill="none" xmlns="http://www.w3.org/2000/svg">
<g clip-path="url(#clip0)">
<path opacity="0.2" d="M550.429 190.944H515.336V209.161H550.429V190.944Z" fill="#242423"/>
<path opacity="0.2" d="M553.128 213.21H518.036V231.427H553.128V213.21Z" fill="#242423"/>
<path opacity="0.2" d="M524.109 58.7001H489.017V76.9174H524.109V58.7001Z" fill="#242423"/>
<path opacity="0.2" d="M549.079 79.6163H513.986V97.8335H549.079V79.6163Z" fill="#242423"/>
<path opacity="0.2" d="M481.594 60.0496H446.501V78.2668H481.594V60.0496Z" fill="#242423"/>
<path opacity="0.2" d="M594.294 100.532H559.202V118.75H594.294V100.532Z" fill="#242423"/>
<path opacity="0.2" d="M551.778 101.882H516.686V120.099H551.778V101.882Z" fill="#242423"/>
<path opacity="0.2" d="M506.563 80.9657H471.471V99.183H506.563V80.9657Z" fill="#242423"/>
<path opacity="0.2" d="M592.269 240.873H557.177V259.09H592.269V240.873Z" fill="#242423"/>
<path opacity="0.2" d="M549.754 242.222H514.662V260.44H549.754V242.222Z" fill="#242423"/>
<path d="M88.2368 186.221C88.2368 186.221 137.697 235.671 109.778 309.019C81.8594 382.367 157.632 504.443 157.632 504.443C157.632 504.443 156.822 504.322 155.317 504.059C53.7384 486.132 3.2663 369.979 59.7783 283.717C80.7527 251.608 97.9884 213.979 88.2368 186.221Z" fill="#242423"/>
<path d="M88.2368 186.221C88.2368 186.221 116.155 246.837 88.2368 296.28C60.3182 345.724 83.4521 484.526 157.638 504.443" stroke="#535461" stroke-width="2" stroke-miterlimit="10"/>
<path d="M0.141846 386.22C0.141846 386.22 56.5796 377.233 61.722 427.802C66.8643 478.372 170.251 485.383 170.251 485.383C170.251 485.383 169.577 485.841 168.315 486.671C82.9528 542.673 1.35658 522.357 13.6591 447.97C18.2278 420.313 17.8499 392.535 0.141846 386.22Z" fill="#242423"/>
<path opacity="0.2" d="M0.141846 386.22C0.141846 386.22 56.5796 377.233 61.722 427.802C66.8643 478.372 170.251 485.383 170.251 485.383C170.251 485.383 169.577 485.841 168.315 486.671C82.9528 542.673 1.35658 522.357 13.6591 447.97C18.2278 420.313 17.8499 392.535 0.141846 386.22Z" fill="#F5F5F5"/>
<path d="M0.141846 386.22C0.141846 386.22 43.9464 395.835 40.3495 435.656C36.7525 475.478 105.405 523.241 170.251 485.383" stroke="#535461" stroke-width="2" stroke-miterlimit="10"/>
<path opacity="0.2" d="M35.5173 191.619H0.425049V209.836H35.5173V191.619Z" fill="#242423"/>
<path opacity="0.2" d="M60.4868 212.535H25.3945V230.752H60.4868V212.535Z" fill="#242423"/>
<path opacity="0.2" d="M250.12 0H215.028V18.2173H250.12V0Z" fill="#242423"/>
<path opacity="0.2" d="M526.809 336.008H491.716V354.225H526.809V336.008Z" fill="#242423"/>
<path opacity="0.2" d="M63.1862 234.801H28.094V253.018H63.1862V234.801Z" fill="#242423"/>
<path opacity="0.2" d="M275.089 20.9161H239.997V39.1334H275.089V20.9161Z" fill="#242423"/>
<path opacity="0.2" d="M146.868 144.389H111.775V162.606H146.868V144.389Z" fill="#242423"/>
<path opacity="0.2" d="M171.837 165.305H136.745V183.522H171.837V165.305Z" fill="#242423"/>
<path opacity="0.2" d="M238.647 153.835H203.555V172.052H238.647V153.835Z" fill="#242423"/>
<path opacity="0.2" d="M174.537 187.571H139.444V205.788H174.537V187.571Z" fill="#242423"/>
<path opacity="0.2" d="M574.048 336.008H538.956V354.225H574.048V336.008Z" fill="#242423"/>
<path d="M486.331 263.887C484.059 251.245 482.665 238.46 482.161 225.624C481.712 215.054 478.004 204.881 471.545 196.5C465.086 188.119 456.192 181.941 446.083 178.813C442.398 177.679 438.342 176.62 433.861 175.669C394.585 167.329 382.654 174.609 381.297 175.567C380.149 173.479 379.15 171.313 378.308 169.083C378.24 168.854 378.18 168.625 378.112 168.409C385.885 160.121 390.621 149.445 391.548 138.121C398.101 131.482 401.927 123.466 401.927 114.836C401.927 107.414 399.093 100.451 394.133 94.4262V82.6997C394.133 69.1768 388.76 56.2078 379.196 46.6456C369.632 37.0835 356.66 31.7116 343.135 31.7116H338.998C332.3 31.7116 325.669 33.0304 319.481 35.5928C313.294 38.1552 307.672 41.911 302.936 46.6456C298.201 51.3803 294.444 57.0012 291.881 63.1874C289.318 69.3736 287.999 76.0039 287.999 82.6997V95.3371C283.498 101.146 280.947 107.779 280.947 114.823C280.947 123.27 284.618 131.124 290.921 137.682C291.783 149.421 296.736 160.486 304.918 168.948C305.194 170.865 305.478 172.922 305.755 175.095L235.503 189.932C235.503 189.932 208.414 191.045 190.962 227.041C176.203 257.532 146.834 335.866 138.135 359.184C136.563 363.408 135.672 365.83 135.672 365.83C135.672 365.83 135.962 365.54 136.509 365.041L135.672 367.314C135.672 367.314 136.097 366.883 136.907 366.174C135.679 375.93 135.503 392.684 148.285 394.768C159.001 396.516 186.616 397.238 207.476 397.528H208.92C222.748 397.71 233.269 397.71 233.269 397.71V397.528H457.616V395.227C457.619 393.141 457.199 391.075 456.381 389.155L456.692 388.777C457.892 390.362 458.691 392.214 459.02 394.175C458.994 394.365 458.958 394.555 458.912 394.741L459.047 394.397C459.1 395.01 459.054 395.627 458.912 396.226C458.912 396.226 487.694 322.082 487.384 277.807C487.466 273.144 487.114 268.484 486.331 263.887ZM306.922 185.115C306.55 182.999 306.311 180.863 306.207 178.718C306.207 178.718 306.207 178.678 306.207 178.658C306.456 180.742 306.699 182.901 306.922 185.115ZM219.718 344.374V362.045L208.65 364.413L219.718 344.374Z" fill="url(#paint0_linear)"/>
<path d="M339.929 38.8433C353.455 38.8433 366.426 44.2152 375.99 53.7774C385.555 63.3395 390.928 76.3085 390.928 89.8314V111.584H288.931V89.8314C288.931 76.3085 294.304 63.3395 303.868 53.7774C313.432 44.2152 326.403 38.8433 339.929 38.8433Z" fill="#E14B5A"/>
<path d="M340.287 158.652C372.392 158.652 398.419 140.772 398.419 118.716C398.419 96.6597 372.392 78.7796 340.287 78.7796C308.182 78.7796 282.155 96.6597 282.155 118.716C282.155 140.772 308.182 158.652 340.287 158.652Z" fill="#E14B5A"/>
<path d="M303.021 157.404C303.021 157.404 315.169 220.874 303.021 237.992C290.874 255.109 340.138 261.884 340.138 261.884L391.13 243.342L398.263 197.698C398.263 197.698 367.22 180.223 373.651 144.922L303.021 157.404Z" fill="#F7C4A7"/>
<path d="M453.526 371.356C453.526 371.356 456.739 385.262 439.26 387.758C428.94 389.276 418.444 389.151 408.163 387.387L404.31 352.457H444.969L453.526 371.356Z" fill="#F7C4A7"/>
<path d="M144.89 353.557C144.89 353.557 137.17 384.924 154.649 387.758C172.127 390.592 236.306 390.612 236.306 390.612V353.503L207.247 359.71L179.969 333.558L144.89 353.557Z" fill="#F7C4A7"/>
<path opacity="0.1" d="M306.774 177.909L238.472 192.348C238.472 192.348 212.436 193.42 195.673 228.006C178.91 262.592 142.529 361.37 142.529 361.37C142.529 361.37 173.572 329.989 209.939 363.509L234.194 319.653L228.842 389.189H416.774V356.377C416.774 356.377 456.004 377.415 453.156 389.182C453.156 389.182 486.729 302.697 479.475 263.395C477.291 251.245 475.952 238.958 475.466 226.623C475.038 216.464 471.475 206.686 465.267 198.632C459.059 190.578 450.509 184.642 440.792 181.64C437.256 180.553 433.369 179.535 429.05 178.624C388.748 170.068 378.436 178.624 378.436 178.624C378.436 178.624 370.628 204.02 370.77 215.531C370.945 230.327 349.728 240.138 349.728 240.138C349.728 240.138 318.341 232.648 316.917 226.589C315.493 220.53 304.263 185.04 306.774 177.909Z" fill="black"/>
<path d="M306.774 176.485L238.472 190.924C238.472 190.924 212.436 191.997 195.673 226.582C178.91 261.168 142.522 359.96 142.522 359.96C142.522 359.96 173.565 328.579 209.933 362.099L234.187 318.242L228.835 387.758H416.774V354.954C416.774 354.954 456.003 375.991 453.155 387.758C453.155 387.758 486.729 301.273 479.475 261.971C477.291 249.821 475.951 237.534 475.466 225.199C475.038 215.04 471.475 205.262 465.267 197.208C459.058 189.154 450.509 183.219 440.792 180.216C437.256 179.13 433.369 178.111 429.05 177.2C388.748 168.645 378.436 177.2 378.436 177.2C378.436 177.2 370.628 202.596 370.77 214.107C370.945 228.903 349.728 238.714 349.728 238.714C349.728 238.714 318.341 231.225 316.917 225.166C315.493 219.107 304.263 183.617 306.774 176.485Z" fill="#575988"/>
<path opacity="0.1" d="M376.567 173.455C373.698 165.334 373.055 156.594 374.704 148.14L304.074 160.616C304.074 160.616 305.093 165.953 306.247 173.948C310.811 178.683 316.29 182.44 322.351 184.991C328.413 187.542 334.93 188.833 341.506 188.787C348.082 188.741 354.581 187.358 360.606 184.723C366.631 182.087 372.056 178.253 376.553 173.455H376.567Z" fill="black"/>
<path d="M388.613 137.082C388.558 149.806 383.503 161.999 374.538 171.031C365.574 180.063 353.418 185.211 340.692 185.365C327.966 185.519 315.69 180.667 306.509 171.854C297.329 163.042 291.98 150.975 291.617 138.256C291.617 137.864 291.617 137.473 291.617 137.082C291.614 128.001 294.162 119.103 298.969 111.398C303.775 103.694 310.649 97.4932 318.806 93.5019C320.26 92.7912 321.753 92.1524 323.287 91.5857C331.267 88.653 339.874 87.853 348.257 89.2647C359.001 91.0938 368.815 96.4901 376.114 104.582C383.413 112.674 387.771 122.99 388.485 133.863C388.57 134.929 388.613 136.002 388.613 137.082Z" fill="#F7C4A7"/>
<g opacity="0.1">
<path opacity="0.1" d="M323.213 92.726L323.281 92.6855C321.746 93.2522 320.253 93.891 318.8 94.6017C310.642 98.593 303.768 104.794 298.962 112.498C294.155 120.202 291.608 129.101 291.61 138.181C291.61 138.573 291.61 138.964 291.61 139.355C293.118 139.315 294.601 138.958 295.963 138.31C307.786 132.79 314.858 115.909 317.666 104.135C318.678 99.9184 319.63 95.1684 323.213 92.726Z" fill="black"/>
<path opacity="0.1" d="M360.337 94.0821C356.498 92.3188 352.443 91.0688 348.277 90.3645C351.694 91.1504 354.744 93.0666 356.936 95.8027C358.009 97.2627 358.9 98.8489 359.588 100.526C353.133 97.7038 346.141 96.3177 339.098 96.4634C332.054 96.609 325.126 98.2828 318.793 101.369C321.837 108.042 331.278 111.679 337.581 114.114C344.482 116.777 351.456 119.213 358.501 121.422L352.266 116.361L366.35 118.601C366.501 115.799 366.168 112.991 365.364 110.302C368.064 112.475 371.64 113.204 374.569 115.025C380.056 118.487 382.344 125.146 385.333 130.915C386.123 132.44 387.054 133.998 388.478 134.963C387.902 126.247 384.984 117.848 380.031 110.653C375.078 103.458 368.274 97.7327 360.337 94.0821Z" fill="black"/>
</g>
<path d="M323.213 91.6262L323.281 91.5857C321.746 92.1525 320.253 92.7912 318.8 93.5019C310.642 97.4933 303.768 103.694 298.962 111.398C294.155 119.103 291.608 128.001 291.61 137.082C291.61 137.473 291.61 137.864 291.61 138.256C293.118 138.215 294.601 137.859 295.963 137.21C307.786 131.691 314.858 114.809 317.666 103.036C318.678 98.8456 319.63 94.0754 323.213 91.6262Z" fill="#632652"/>
<path d="M360.337 92.9891C356.498 91.2258 352.443 89.9758 348.277 89.2714C351.694 90.0574 354.744 91.9736 356.936 94.7096C358.009 96.1697 358.9 97.7558 359.588 99.4326C353.133 96.6108 346.141 95.2247 339.098 95.3703C332.054 95.5159 325.126 97.1898 318.793 100.276C321.837 106.949 331.278 110.586 337.581 113.021C344.482 115.684 351.456 118.12 358.501 120.329L352.266 115.268L366.35 117.508C366.501 114.706 366.168 111.898 365.364 109.209C368.064 111.382 371.64 112.11 374.569 113.932C380.056 117.394 382.344 124.053 385.333 129.822C386.123 131.347 387.054 132.905 388.478 133.87C387.902 125.154 384.984 116.755 380.031 109.56C375.078 102.365 368.274 96.6397 360.337 92.9891Z" fill="#632652"/>
<path opacity="0.1" d="M286.076 129.086C286.076 129.086 336.015 67.0126 393.789 129.086L388.795 115.18C388.795 115.18 361.686 75.6017 342.433 84.1436C323.179 92.6855 304.27 98.7647 304.27 98.7647L286.076 129.086Z" fill="black"/>
<path d="M286.076 127.987C286.076 127.987 336.015 65.9128 393.789 127.987L388.795 114.081C388.795 114.081 361.686 74.5019 342.433 83.0438C323.179 91.5857 304.27 97.6649 304.27 97.6649L286.076 127.987Z" fill="#E14B5A"/>
<path opacity="0.1" d="M245.058 261.708C245.058 261.708 234.362 290.235 249.337 315.908C264.312 341.581 236.144 352.282 236.144 352.282" fill="black"/>
<path opacity="0.1" d="M418.394 236.035C418.394 236.035 436.939 259.569 424.812 280.607C412.685 301.644 413.4 352.282 413.4 352.282" fill="black"/>
<path d="M228.653 373.319H434.8C439.34 373.319 443.695 375.123 446.906 378.333C450.117 381.543 451.921 385.897 451.921 390.437H211.539C211.539 385.898 213.342 381.545 216.551 378.335C219.76 375.125 224.113 373.321 228.653 373.319Z" fill="#535461"/>
<path d="M249.627 255.642H413.832C417.288 255.642 420.711 256.323 423.904 257.645C427.097 258.968 429.998 260.906 432.442 263.35C434.886 265.793 436.825 268.694 438.148 271.886C439.47 275.079 440.151 278.501 440.151 281.956V377.239H223.308V281.956C223.308 274.977 226.081 268.284 231.017 263.35C235.953 258.415 242.647 255.642 249.627 255.642Z" fill="#535461"/>
<path d="M331.547 334.631C338.64 334.631 344.39 328.883 344.39 321.791C344.39 314.7 338.64 308.952 331.547 308.952C324.455 308.952 318.705 314.7 318.705 321.791C318.705 328.883 324.455 334.631 331.547 334.631Z" fill="white"/>
<path opacity="0.1" d="M288.931 99.9926C288.931 99.9926 338.006 50.9544 390.934 99.0952" stroke="black" stroke-miterlimit="10"/>
<path d="M403.331 96.8687H398.405V124.795H403.331V96.8687Z" fill="#6A5C99"/>
<path d="M391.832 114.938C396.335 114.938 400.654 116.726 403.838 119.91C407.022 123.093 408.811 127.411 408.811 131.913V133.006C408.811 137.509 407.022 141.827 403.838 145.01C400.654 148.194 396.335 149.982 391.832 149.982V114.938Z" fill="#FFD037"/>
<path d="M396.211 117.13C396.211 115.014 394.495 113.298 392.378 113.298C390.261 113.298 388.545 115.014 388.545 117.13V147.796C388.545 149.913 390.261 151.629 392.378 151.629C394.495 151.629 396.211 149.913 396.211 147.796V117.13Z" fill="#6A5C99"/>
<path d="M276.028 125.342H280.954V97.4152H276.028V125.342Z" fill="#6A5C99"/>
<path d="M287.527 150.529C283.024 150.529 278.705 148.74 275.521 145.557C272.336 142.373 270.548 138.055 270.548 133.553V132.46C270.548 130.231 270.987 128.023 271.84 125.963C272.693 123.904 273.944 122.033 275.521 120.456C277.097 118.88 278.969 117.629 281.029 116.776C283.089 115.923 285.297 115.484 287.527 115.484V150.529Z" fill="#FFD037"/>
<path d="M283.147 148.336C283.147 150.452 284.863 152.168 286.98 152.168C289.097 152.168 290.813 150.452 290.813 148.336V117.67C290.813 115.554 289.097 113.838 286.98 113.838C284.863 113.838 283.147 115.554 283.147 117.67V148.336Z" fill="#6A5C99"/>
<path d="M397.824 67.0193C391.15 53.1472 376.614 36.3738 345.28 35.0312V34.9907H344.902L333.801 35.517V35.5709C302.677 37.0013 288.208 53.714 281.554 67.5389C277.123 76.9109 274.77 87.1301 274.657 97.4962L278.49 97.4017L282.324 97.314C282.489 88.0852 284.612 78.9966 288.552 70.6493C297.002 53.2957 312.55 44.0723 334.759 43.2154L344.579 42.6689C366.801 43.5191 382.357 52.7559 390.799 70.1028C394.746 78.4532 396.874 87.5466 397.041 96.781L400.875 96.8687L404.708 96.9632C404.598 86.6027 402.249 76.3883 397.824 67.0193Z" fill="#FFD037"/>
<path d="M572.942 390.659H50.1279V531H572.942V390.659Z" fill="#D6D6E3"/>
<path opacity="0.1" d="M572.942 400.105H50.1279V418.323H572.942V400.105Z" fill="black"/>
<path d="M608 388.635H15.0559V406.853H608V388.635Z" fill="#D6D6E3"/>
</g>
<defs>
<linearGradient id="paint0_linear" x1="311.531" y1="397.744" x2="311.531" y2="31.7116" gradientUnits="userSpaceOnUse">
<stop stop-color="#808080" stop-opacity="0.25"/>
<stop offset="0.54" stop-color="#808080" stop-opacity="0.12"/>
<stop offset="1" stop-color="#808080" stop-opacity="0.1"/>
</linearGradient>
<clipPath id="clip0">
<rect width="608" height="531" fill="white"/>
</clipPath>
</defs>
</svg>
